name rise30.2954peak35.7071fall66.7804.mot
datacolumns 19
datarows 35
range 15.04828200000000 15.10495000000000
endheader
time	ground_force1_vx	ground_force1_vy	ground_force1_vz	ground_force1_px	ground_force1_py	ground_force1_pz	ground_force2_vx	ground_force2_vy	ground_force2_vz	ground_force2_px	ground_force2_py	ground_force2_pz	ground_torque1_x	ground_torque1_y	ground_torque1_z	ground_torque2_x	ground_torque2_y	ground_torque2_z	
15.04828200000000	-5.81078200000000	43.38541600000000	-11.68530500000000	0.26734800000000	0.00000000000000	0.12028400000000	-28.28819700000000	760.59880899999996	-58.53018500000000	0.09152200000000	0.00000000000000	-0.07904500000000	0.00000000000000	-6.07542500000000	0.00000000000000	0.00000000000000	-13.99712500000000	0.00000000000000	
15.04994200000000	-6.25921000000000	50.93778900000000	-13.11333300000000	0.27260300000000	0.00000000000000	0.12129300000000	-28.67050100000000	758.10697200000004	-58.23990700000000	0.09114700000000	0.00000000000000	-0.07891500000000	0.00000000000000	-6.94285100000000	0.00000000000000	0.00000000000000	-13.95261500000000	0.00000000000000	
15.05161000000000	-6.56636800000000	58.60762100000000	-14.40141200000000	0.27723100000000	0.00000000000000	0.12221700000000	-29.08923900000000	755.54500700000006	-57.93201000000000	0.09076600000000	0.00000000000000	-0.07878300000000	0.00000000000000	-7.75952800000000	0.00000000000000	0.00000000000000	-13.91376200000000	0.00000000000000	
15.05327600000000	-6.71590400000000	66.29767699999999	-15.51863300000000	0.28133400000000	0.00000000000000	0.12307000000000	-29.54444400000000	752.91120000000001	-57.60626700000000	0.09038000000000	0.00000000000000	-0.07864700000000	0.00000000000000	-8.50707300000000	0.00000000000000	0.00000000000000	-13.88056100000000	0.00000000000000	
15.05494500000000	-6.69877800000000	73.93376000000001	-16.44472100000000	0.28499500000000	0.00000000000000	0.12386300000000	-30.03601100000000	750.20365200000003	-57.26246100000000	0.08998800000000	0.00000000000000	-0.07850800000000	0.00000000000000	-9.17247000000000	0.00000000000000	0.00000000000000	-13.85298100000000	0.00000000000000	
15.05661700000000	-6.51305800000000	81.46706600000000	-17.17013900000000	0.28828200000000	0.00000000000000	0.12460200000000	-30.56369100000000	747.42027800000005	-56.90038100000000	0.08959100000000	0.00000000000000	-0.07836600000000	0.00000000000000	-9.74829900000000	0.00000000000000	0.00000000000000	-13.83096600000000	0.00000000000000	
15.05827800000000	-6.16316300000000	88.87405900000000	-17.69530200000000	0.29124800000000	0.00000000000000	0.12529600000000	-31.12709000000000	744.55881299999999	-56.51982400000000	0.08918700000000	0.00000000000000	-0.07822100000000	0.00000000000000	-10.23247300000000	0.00000000000000	0.00000000000000	-13.81443600000000	0.00000000000000	
15.05994800000000	-5.65872800000000	96.15427500000000	-18.02910700000000	0.29393800000000	0.00000000000000	0.12594900000000	-31.72567000000000	741.61681299999998	-56.12059700000000	0.08877800000000	0.00000000000000	-0.07807300000000	0.00000000000000	-10.62757900000000	0.00000000000000	0.00000000000000	-13.80328400000000	0.00000000000000	
15.06161600000000	-5.01323000000000	103.32660900000000	-18.18702700000000	0.29639100000000	0.00000000000000	0.12656700000000	-32.35874300000000	738.59166400000004	-55.70252200000000	0.08836300000000	0.00000000000000	-0.07792100000000	0.00000000000000	-10.93994400000000	0.00000000000000	0.00000000000000	-13.79737800000000	0.00000000000000	
15.06327900000000	-4.24254500000000	110.42464400000000	-18.18899000000000	0.29863500000000	0.00000000000000	0.12715300000000	-33.02547400000000	735.48058900000001	-55.26543000000000	0.08794300000000	0.00000000000000	-0.07776700000000	0.00000000000000	-11.17856300000000	0.00000000000000	0.00000000000000	-13.79656000000000	0.00000000000000	
15.06494800000000	-3.36355100000000	117.49158700000000	-18.05726800000000	0.30069900000000	0.00000000000000	0.12771000000000	-33.72488100000000	732.28065100000003	-54.80917200000000	0.08751800000000	0.00000000000000	-0.07760900000000	0.00000000000000	-11.35399400000000	0.00000000000000	0.00000000000000	-13.80064700000000	0.00000000000000	
15.06661100000000	-2.39290100000000	124.57529000000000	-17.81454500000000	0.30260400000000	0.00000000000000	0.12824100000000	-34.45583300000000	728.98876700000005	-54.33361400000000	0.08708700000000	0.00000000000000	-0.07744900000000	0.00000000000000	-11.47731500000000	0.00000000000000	0.00000000000000	-13.80943200000000	0.00000000000000	
15.06827800000000	-1.34602200000000	131.72373300000001	-17.48227200000000	0.30436900000000	0.00000000000000	0.12874900000000	-35.21705000000000	725.60171700000001	-53.83864200000000	0.08665200000000	0.00000000000000	-0.07728500000000	0.00000000000000	-11.55922900000000	0.00000000000000	0.00000000000000	-13.82268100000000	0.00000000000000	
15.06995100000000	-0.23637600000000	138.98125200000001	-17.07941400000000	0.30600900000000	0.00000000000000	0.12923600000000	-36.00711000000000	722.11615300000005	-53.32416300000000	0.08621200000000	0.00000000000000	-0.07711800000000	0.00000000000000	-11.60934400000000	0.00000000000000	0.00000000000000	-13.84013900000000	0.00000000000000	
15.07160900000000	0.92498600000000	146.38566599999999	-16.62159500000000	0.30753900000000	0.00000000000000	0.12970300000000	-36.82444700000000	718.52861600000006	-52.79010900000000	0.08576900000000	0.00000000000000	-0.07694800000000	0.00000000000000	-11.63567700000000	0.00000000000000	0.00000000000000	-13.86152400000000	0.00000000000000	
15.07327700000000	2.12961800000000	153.96637600000000	-16.12065100000000	0.30897100000000	0.00000000000000	0.13015100000000	-37.66735400000000	714.83554400000003	-52.23643600000000	0.08532300000000	0.00000000000000	-0.07677500000000	0.00000000000000	-11.64435400000000	0.00000000000000	0.00000000000000	-13.88653200000000	0.00000000000000	
15.07494300000000	3.37163400000000	161.74338499999999	-15.58454500000000	0.31031400000000	0.00000000000000	0.13058300000000	-38.53398600000000	711.03329199999996	-51.66312800000000	0.08487500000000	0.00000000000000	-0.07659900000000	0.00000000000000	-11.63951700000000	0.00000000000000	0.00000000000000	-13.91483700000000	0.00000000000000	
15.07661500000000	4.64747900000000	169.72717000000000	-15.01758700000000	0.31157700000000	0.00000000000000	0.13099800000000	-39.42236600000000	707.11814600000002	-51.07019800000000	0.08442400000000	0.00000000000000	-0.07642000000000	0.00000000000000	-11.62339500000000	0.00000000000000	0.00000000000000	-13.94609000000000	0.00000000000000	
15.07827600000000	5.95556700000000	177.91923900000000	-14.42089000000000	0.31276800000000	0.00000000000000	0.13139900000000	-40.33038900000000	703.08634199999995	-50.45769200000000	0.08397300000000	0.00000000000000	-0.07623800000000	0.00000000000000	-11.59650500000000	0.00000000000000	0.00000000000000	-13.97992300000000	0.00000000000000	
15.07995100000000	7.29582700000000	186.31322399999999	-13.79298100000000	0.31389200000000	0.00000000000000	0.13178600000000	-41.25582700000000	698.93408499999998	-49.82568800000000	0.08352100000000	0.00000000000000	-0.07605200000000	0.00000000000000	-11.55794800000000	0.00000000000000	0.00000000000000	-14.01594800000000	0.00000000000000	
15.08161800000000	8.66922700000000	194.89631299999999	-13.13049100000000	0.31495600000000	0.00000000000000	0.13216000000000	-42.19633200000000	694.65756499999998	-49.17429900000000	0.08307000000000	0.00000000000000	-0.07586300000000	0.00000000000000	-11.50575900000000	0.00000000000000	0.00000000000000	-14.05375600000000	0.00000000000000	
15.08328400000000	10.07729500000000	203.65086400000001	-12.42886600000000	0.31596400000000	0.00000000000000	0.13252200000000	-43.14944800000000	690.25298599999996	-48.50367500000000	0.08262000000000	0.00000000000000	-0.07567200000000	0.00000000000000	-11.43726800000000	0.00000000000000	0.00000000000000	-14.09292500000000	0.00000000000000	
15.08494900000000	11.52168700000000	212.55604500000001	-11.68303600000000	0.31692000000000	0.00000000000000	0.13287200000000	-44.11261200000000	685.71658100000002	-47.81400300000000	0.08217200000000	0.00000000000000	-0.07547700000000	0.00000000000000	-11.34945100000000	0.00000000000000	0.00000000000000	-14.13301400000000	0.00000000000000	
15.08661300000000	13.00382000000000	221.58937000000000	-10.88800000000000	0.31782700000000	0.00000000000000	0.13321000000000	-45.08316800000000	681.04463999999996	-47.10551100000000	0.08172800000000	0.00000000000000	-0.07527800000000	0.00000000000000	-11.23925000000000	0.00000000000000	0.00000000000000	-14.17356800000000	0.00000000000000	
15.08827900000000	14.52459000000000	230.72805000000000	-10.03930500000000	0.31868800000000	0.00000000000000	0.13353800000000	-46.05836700000000	676.23352999999997	-46.37846500000000	0.08128700000000	0.00000000000000	-0.07507700000000	0.00000000000000	-11.10382800000000	0.00000000000000	0.00000000000000	-14.21412000000000	0.00000000000000	
15.08994600000000	16.08416700000000	239.95008799999999	-9.13340200000000	0.31950500000000	0.00000000000000	0.13385500000000	-47.03538200000000	671.27972299999999	-45.63317400000000	0.08085000000000	0.00000000000000	-0.07487200000000	0.00000000000000	-10.94077300000000	0.00000000000000	0.00000000000000	-14.25419100000000	0.00000000000000	
15.09161500000000	17.68188600000000	249.23509100000001	-8.16787000000000	0.32028000000000	0.00000000000000	0.13416300000000	-48.01131500000000	666.17981499999996	-44.86999000000000	0.08041900000000	0.00000000000000	-0.07466500000000	0.00000000000000	-10.74822600000000	0.00000000000000	0.00000000000000	-14.29329300000000	0.00000000000000	
15.09328000000000	19.31621100000000	258.56479999999999	-7.14152900000000	0.32101300000000	0.00000000000000	0.13446100000000	-48.98320400000000	660.93055600000002	-44.08930500000000	0.07999500000000	0.00000000000000	-0.07445300000000	0.00000000000000	-10.52496000000000	0.00000000000000	0.00000000000000	-14.33093000000000	0.00000000000000	
15.09494500000000	20.98476000000000	267.92335400000002	-6.05444500000000	0.32170700000000	0.00000000000000	0.13475000000000	-49.94803400000000	655.52886400000000	-43.29155600000000	0.07957700000000	0.00000000000000	-0.07423900000000	0.00000000000000	-10.27038900000000	0.00000000000000	0.00000000000000	-14.36660000000000	0.00000000000000	
15.09661300000000	22.68439200000000	277.29731800000002	-4.90784900000000	0.32236100000000	0.00000000000000	0.13503000000000	-50.90274500000000	649.97185500000001	-42.47722500000000	0.07916700000000	0.00000000000000	-0.07402100000000	0.00000000000000	-9.98454400000000	0.00000000000000	0.00000000000000	-14.39979600000000	0.00000000000000	
15.09827600000000	24.41131900000000	286.67554100000001	-3.70400300000000	0.32297700000000	0.00000000000000	0.13530200000000	-51.84424700000000	644.25685599999997	-41.64683700000000	0.07876500000000	0.00000000000000	-0.07380000000000	0.00000000000000	-9.66800700000000	0.00000000000000	0.00000000000000	-14.43001100000000	0.00000000000000	
15.09994500000000	26.16124500000000	296.04885999999999	-2.44601500000000	0.32355300000000	0.00000000000000	0.13556500000000	-52.76942100000000	638.38142700000003	-40.80096000000000	0.07837200000000	0.00000000000000	-0.07357600000000	0.00000000000000	-9.32182000000000	0.00000000000000	0.00000000000000	-14.45673600000000	0.00000000000000	
15.10163700000000	27.92950700000000	305.40974199999999	-1.13764400000000	0.32409100000000	0.00000000000000	0.13582000000000	-53.67513600000000	632.34337400000004	-39.94021100000000	0.07798900000000	0.00000000000000	-0.07334800000000	0.00000000000000	-8.94739200000000	0.00000000000000	0.00000000000000	-14.47946500000000	0.00000000000000	
15.10327600000000	29.71122100000000	314.75187299999999	0.21690200000000	0.32458900000000	0.00000000000000	0.13606800000000	-54.55825800000000	626.14076599999999	-39.06524800000000	0.07761600000000	0.00000000000000	-0.07311700000000	0.00000000000000	-8.54639600000000	0.00000000000000	0.00000000000000	-14.49769400000000	0.00000000000000	
15.10495000000000	31.50140300000000	324.06976200000003	1.61314700000000	0.32504800000000	0.00000000000000	0.13630700000000	-55.41565900000000	619.77194499999996	-38.17677800000000	0.07725400000000	0.00000000000000	-0.07288300000000	0.00000000000000	-8.12066900000000	0.00000000000000	0.00000000000000	-14.51092700000000	0.00000000000000	
